<svg xmlns="http://www.w3.org/2000/svg" width="158.485" height="22.695" viewBox="0 0 158.485 22.695">
  <g id="Grupo_524" data-name="Grupo 524" transform="translate(0 0)">
    <g id="Grupo_359" data-name="Grupo 359" transform="translate(33.997 1.491)">
      <path id="Caminho_847" data-name="Caminho 847" d="M23.141-59.51a9.832,9.832,0,0,0-6.933-3.466c-5.875,0-10.576,4.093-10.576,10.211s4.7,9.947,10.576,9.947a11.233,11.233,0,0,0,4.544-1.337,10.766,10.766,0,0,0,2.465-2.076l-2.445-2.586a6.414,6.414,0,0,1-4.564,1.887,5.63,5.63,0,0,1-5.713-5.835A5.63,5.63,0,0,1,16.208-58.6a6.777,6.777,0,0,1,4.314,1.958Z" transform="translate(43.915 63.557)" fill="#22b393"/>
      <path id="Caminho_842" data-name="Caminho 842" d="M18.476-43.041l4.466,0L22.959-54.3c0-2.731,0-8.674-8.352-8.674-1.963,0-6.875.866-7.665,1.66l1.152,3.928c1.3-1.2,3.892-1.325,5.929-1.325a5.669,5.669,0,0,1,3.6,1.325c.5.393.549.686.549,1.667v.5h-.836c-2.435,0-5.568-.378-8.064.532a6.2,6.2,0,0,0-4.042,6.152c0,3.815,3.306,5.806,6.932,5.806,2.607,0,4.768-.391,6.153-2.56h.159Zm.051-7.736c0,2.691-1.842,4.427-5.183,4.427-1.589,0-3.422-.763-3.422-2.53,0-2.771,4.255-2.74,6.944-2.74h1.661Z" transform="translate(64.433 63.462)" fill="#22b393"/>
      <path id="Caminho_843" data-name="Caminho 843" d="M8.7-43.352h4.463V-53.6a4.68,4.68,0,0,1,4.8-4.826,8.394,8.394,0,0,1,2.157.359V-62.7a5.4,5.4,0,0,0-1.6-.279,5.663,5.663,0,0,0-5.281,3.51h-.074V-62.5H8.7Z" transform="translate(83.436 63.774)" fill="#22b393"/>
      <path id="Caminho_846" data-name="Caminho 846" d="M26.707-51.063V-52.4c0-6.767-3.687-10.576-9.117-10.576-5.875,0-9.935,4.091-9.935,10.209s4.06,10.213,9.935,10.213a10.129,10.129,0,0,0,8.226-3.89l-3.485-2.634A6.394,6.394,0,0,1,17.1-46.444c-2.715,0-4.345-1.742-4.669-4.619ZM12.435-54.71c.365-2.8,1.563-4.255,4.44-4.255,3.039,0,4.93,1.419,4.97,4.255Z" transform="translate(97.781 62.976)" fill="#22b393"/>
      <path id="Caminho_849" data-name="Caminho 849" d="M7.856-40.731h2.532l5.268-15.436h.082l5.635,15.436h2.532L29.459-59.6h-2.45l-4.451,15.8h-.082L16.881-59.6H14.554l-5.268,15.8H9.2L4.63-59.6h-2.7Z" transform="translate(-1.935 60.521)" fill="#2c3e51"/>
      <path id="Caminho_848" data-name="Caminho 848" d="M22.132-46.853A7.13,7.13,0,0,1,16.1-43.5C10.66-43.5,9.3-48.568,9.3-50.61H24.388v-1.715c0-4.37-2.917-8.821-8.439-8.821-5.25,0-8.983,4.247-8.983,9.882,0,5.84,3.617,9.964,9.1,9.964a8.687,8.687,0,0,0,7.778-4.043ZM9.3-52.815c0-.98,1.439-6.126,6.533-6.126a6.181,6.181,0,0,1,6.222,6.126Z" transform="translate(21.218 61.579)" fill="#2c3e51"/>
    </g>
    <path id="path1" d="M23.88,2.878c-.007,0-.089.011-.183.019a5.645,5.645,0,0,0-.889.129c-.194.046-.441.11-.51.131a6.721,6.721,0,0,0-1,.406l-.176.094c-.052.028-.1.055-.107.061a.627.627,0,0,1-.058.036,6.848,6.848,0,0,0-.92.665,8.11,8.11,0,0,0-.788.8l-.082.1s-.048.058-.1.122l-.113.141c-.018.022-.1.126-.167.225l-.074.1a.522.522,0,0,0-.051.078.1.1,0,0,1-.022.033,2.027,2.027,0,0,0-.149.23l-.059.1c-.045.078-.3.613-.3.63a.679.679,0,0,1-.032.078.485.485,0,0,0-.032.083.1.1,0,0,1-.011.035,2.85,2.85,0,0,0-.122.337c-.018.06-.043.141-.056.18-.034.106-.071.24-.093.334-.057.246-.072.314-.1.437-.033.171-.047.253-.063.366L17.61,9a11.364,11.364,0,0,0,0,2.047l.025.18c.024.17.075.453.113.627.005.025.017.08.025.122s.023.109.034.148l.044.167c.045.175.041.161.135.463.028.088.068.21.09.27s.047.132.056.161c.019.061.086.231.125.321.016.035.036.085.045.109s.033.083.054.128l.076.173c.043.1.3.626.347.7s.075.134.124.225c.026.048.067.12.092.16s.07.117.1.171a16.568,16.568,0,0,0,.963,1.4l.111.141c.044.057.083.106.087.109s.02.024.036.045.047.059.069.084.068.08.1.122l.069.083.082.1c.042.049.1.116.128.148l.08.09c.227.27,1.009,1.064,1.412,1.434l.088.083c.01.011.042.039.069.063l.115.1.126.113.087.077.1.088.082.071s.035.03.069.058l.069.057c.012.012.157.135.221.186a3.12,3.12,0,0,1,.252.225c.132.126.239.227.378.353l.113.1c.044.04.133.12.166.148.057.049.212.185.219.193l.069.058c.035.028.066.055.069.059s.186.158.334.28l.1.086.062.052.176.141c.161.13.176.141.4.313l.2.152.113.086c.126.095.233.176.258.2l.17.125.164.12.076.054a.658.658,0,0,1,.069.052.645.645,0,0,0,.071.052l.239.167c.1.068.268.188.383.266s.214.148.221.154a.326.326,0,0,0,.044.028.171.171,0,0,1,.037.025,1.205,1.205,0,0,0,.1.068c.052.033.1.065.107.071s.186.126.22.144a.329.329,0,0,1,.044.028c.036.031.56.363.776.493l.269.165c.11.068.2.124.206.124a.183.183,0,0,1,.04.024c.018.013.059.038.09.056l.1.058c.1.06.491.285.555.321l.118.067.158.087c.06.033.115.063.122.069s.089.05.183.1l.309.166c.076.041.2.106.273.144l.135.069.1-.054c.249-.129.837-.447,1.063-.575l.183-.1.12-.068.2-.118.29-.17.17-.1c.024-.014.059-.037.078-.05a.181.181,0,0,1,.04-.024c.009,0,.52-.316.834-.516.168-.107.6-.4.863-.572l.29-.2c.066-.045.123-.085.126-.089s.055-.041.113-.082c.223-.154.843-.606.952-.694l.095-.071c.045-.033.085-.063.088-.067l.107-.084.12-.092.107-.083.107-.083.152-.122.147-.12c.008-.007.03-.025.05-.039s.056-.043.08-.065.087-.073.139-.115.1-.079.1-.084.035-.03.069-.059l.069-.057.082-.07.082-.071.088-.077.1-.084.138-.122c.068-.06.161-.144.207-.186l.195-.18c.061-.057.132-.124.157-.15.049-.051.216-.2.342-.3l.093-.077.09-.077.082-.071.082-.071c.087-.074.1-.085.252-.219.1-.088.29-.26.367-.334l.151-.141c.4-.377,1.081-1.076,1.374-1.42l.056-.064.082-.1c.042-.05.082-.1.089-.1s.039-.045.069-.084.059-.074.063-.077.029-.035.057-.07c.049-.063.1-.125.126-.153.007-.008.03-.037.05-.066.036-.05.132-.173.145-.186s.208-.282.316-.431c.058-.08.271-.4.37-.553l.1-.151a.147.147,0,0,0,.023-.047.019.019,0,0,1,.01-.017c.008,0,.133-.21.2-.338l.059-.1c.02-.035.065-.116.1-.18l.085-.16c.032-.058.2-.4.243-.5.091-.2.106-.235.129-.289l.06-.148a.792.792,0,0,1,.046-.1.052.052,0,0,0,.01-.029.3.3,0,0,1,.024-.071c.031-.071.064-.157.084-.222.009-.028.034-.1.056-.161.036-.1.063-.183.132-.411.012-.039.026-.088.032-.109l.031-.116c.042-.156.084-.324.1-.4A9.355,9.355,0,0,0,45.3,10.9a10.147,10.147,0,0,0-.006-1.8c-.024-.2-.056-.426-.073-.509L45.2,8.481c-.024-.124-.039-.195-.1-.437-.018-.078-.038-.156-.044-.173s-.029-.093-.051-.167a4.767,4.767,0,0,0-.177-.524.3.3,0,0,1-.024-.071A.051.051,0,0,0,44.8,7.08.422.422,0,0,1,44.764,7c-.041-.114-.244-.545-.309-.655-.021-.035-.05-.087-.064-.116-.026-.049-.209-.327-.224-.341s-.044-.056-.149-.2a8.764,8.764,0,0,0-1.024-1.14c-.031-.028-.065-.059-.076-.071s-.1-.083-.189-.159c-.207-.169-.2-.161-.252-.2a.418.418,0,0,1-.05-.04,1.185,1.185,0,0,0-.1-.069,1.174,1.174,0,0,1-.111-.079.058.058,0,0,0-.028-.018.055.055,0,0,1-.027-.016,6.843,6.843,0,0,0-.911-.5s-.038-.015-.078-.034-.087-.038-.1-.044l-.12-.044a6.547,6.547,0,0,0-.8-.241L39.981,3a6.535,6.535,0,0,0-.744-.106c-.211-.022-1.209-.022-1.431,0l-.3.029c-.076.007-.181.019-.233.027-.221.032-.367.056-.46.076l-.12.026c-.079.017-.115.025-.315.071-.08.018-.159.038-.176.044l-.088.027-.126.038-.145.045c-.1.03-.228.073-.359.122l-.177.064c-.038.013-.151.059-.25.1s-.182.078-.185.078c-.02,0-.718.349-.857.428l-.139.079-.143.085c-.044.027-.082.049-.084.049s-.458.293-.612.4l-.175.124c-.044.031-.089.064-.1.073l-.163.127c-.14.108-.188.148-.229.186-.011.011-.049.042-.083.07a9.128,9.128,0,0,0-.754.742l-.086.1-.065-.073a9.1,9.1,0,0,0-1.016-.963l-.154-.124c-.012-.01-.037-.029-.057-.041s-.044-.03-.054-.039c-.061-.049-.145-.11-.192-.14a.4.4,0,0,1-.06-.044c-.008-.011-.382-.261-.485-.323l-.158-.1c-.045-.028-.119-.071-.164-.1L28.9,4.088c-.135-.082-.791-.406-.956-.473-.053-.022-.122-.051-.154-.066-.059-.027-.2-.083-.252-.1L27.4,3.4c-.125-.047-.253-.091-.359-.123-.148-.044-.24-.072-.271-.083S26.4,3.1,26.3,3.076l-.113-.025-.12-.025L25.934,3c-.035-.007-.106-.018-.158-.026l-.183-.027c-.082-.012-.192-.023-.517-.053-.13-.012-1.175-.028-1.2-.018m.9,1.588c.087.008.22.022.3.032l.239.031c.056.007.126.018.158.025l.139.026c.116.021.15.028.485.109.229.055.221.053.592.168.164.051.206.066.416.148.317.124.313.122.453.186l.164.074c.082.036.448.226.534.278a.692.692,0,0,0,.072.04s.066.038.141.086.162.1.193.118a.4.4,0,0,1,.063.041s.06.044.126.088.134.09.151.1l.1.076.082.062.057.042a.532.532,0,0,1,.05.039s.035.03.069.058l.077.064.137.121a8.371,8.371,0,0,1,.841.865l.048.06-.044.071a.4.4,0,0,0-.044.084.013.013,0,0,1-.013.013.013.013,0,0,0-.013.014.253.253,0,0,1-.036.067c-.02.03-.048.074-.061.1l-.072.128-.072.129c-.014.025-.029.051-.034.058s-.034.059-.063.116l-.089.167c-.138.251-.392.769-.57,1.163-.053.118-.179.417-.219.52-.024.064-.052.133-.061.154-.037.086-.113.29-.152.4-.081.242-.155.471-.177.546-.012.042-.029.1-.039.131s-.029.1-.043.154l-.044.166a9.438,9.438,0,0,0-.2,1.129,7.369,7.369,0,0,0,0,.925l.027.193a2.568,2.568,0,0,0,.056.283,2.74,2.74,0,0,0,2.1,2.035,2.912,2.912,0,0,0,1.752-.023,3.553,3.553,0,0,0,1.09-.54s.037-.031.076-.061a2.867,2.867,0,0,0,.441-.478.1.1,0,0,1,.022-.034,2.753,2.753,0,0,0,.418-1.014l.026-.129a6.082,6.082,0,0,0,.028-1.227c-.035-.263-.053-.383-.09-.591s-.116-.544-.192-.8c-.056-.194-.233-.741-.262-.81-.006-.014-.04-.1-.077-.2-.064-.169-.081-.212-.118-.3l-.077-.183c-.033-.078-.079-.185-.1-.238l-.084-.186c-.048-.107-.434-.892-.473-.961-.056-.1-.082-.147-.125-.228-.024-.046-.066-.12-.093-.165s-.049-.084-.049-.086-.038-.067-.084-.143-.1-.17-.124-.209-.05-.086-.062-.105a.062.062,0,0,1-.013-.051,1.779,1.779,0,0,1,.125-.159l.093-.1c.1-.117.238-.256.382-.4.126-.123.171-.165.308-.285l.1-.084c.019-.016.049-.041.069-.055s.052-.041.073-.059.072-.059.114-.09.078-.061.082-.065a9.157,9.157,0,0,1,1.361-.82l.17-.079c.082-.038.249-.107.466-.192.2-.078.247-.095.416-.148l.17-.054.06-.018.082-.023c.116-.033.532-.136.589-.147l.132-.027c.148-.031.227-.045.34-.06l.189-.026a4.44,4.44,0,0,1,1.323-.011,5.994,5.994,0,0,1,.718.128c.077.018.137.033.2.05l.113.032a5.631,5.631,0,0,1,.643.236c.062.028.339.167.384.194a4.223,4.223,0,0,1,.573.388s.035.03.069.058a3.459,3.459,0,0,1,.29.269,4.774,4.774,0,0,1,1.155,2.024c.058.192.1.37.123.463.007.039.022.114.033.167s.025.131.033.173.018.1.024.135.017.11.025.173.019.153.026.2a12.072,12.072,0,0,1,0,2.069c-.041.352-.075.6-.1.733-.006.032-.02.11-.031.173-.024.136-.044.231-.057.276l-.024.084c-.04.148-.154.489-.2.591l-.056.135-.06.141c-.03.07-.211.437-.243.495-.016.028-.049.089-.073.135s-.055.1-.067.118a.136.136,0,0,0-.023.048.014.014,0,0,1-.013.014.012.012,0,0,0-.013.011c0,.01-.107.188-.184.308l-.043.066-.206.308c-.033.049-.113.16-.264.366-.015.021-.042.056-.06.077s-.056.071-.084.11-.063.082-.076.1-.046.055-.073.092c-.048.063-.306.377-.321.39s-.1.11-.209.238c-.394.452-1.159,1.236-1.587,1.627l-.1.1c-.022.021-.078.073-.126.116l-.1.09-.114.1-.164.148-.1.09c-.052.044-.212.185-.22.193l-.082.071-.082.071s-.035.03-.069.058l-.077.064-.075.064-.138.116L37.8,19.3c-.052.042-.1.08-.1.084s-.659.532-.763.61l-.107.083-.107.084c-.055.042-.1.08-.107.084a.619.619,0,0,1-.05.038.533.533,0,0,0-.05.038s-.06.048-.126.1l-.132.1-.095.07c-.045.033-.085.064-.088.067s-.046.036-.095.07-.091.067-.095.071-.062.048-.131.1c-.22.158-.319.23-.35.254s-.356.258-.452.324c-.148.1-.246.172-.258.183s-.081.057-.164.113-.154.105-.158.109-.208.143-.454.309c-.384.26-.555.373-.781.519-.358.231-.482.311-.6.385l-.256.163a1,1,0,0,1-.129.075.012.012,0,0,0-.012.013.013.013,0,0,1-.012.013.589.589,0,0,0-.1.058.9.9,0,0,1-.1.058.385.385,0,0,0-.062.039.261.261,0,0,1-.068.039.013.013,0,0,0-.013.013.013.013,0,0,1-.013.013,1.636,1.636,0,0,0-.171.1l-.159.1-.109-.067-.151-.091c-.085-.049-.512-.313-.808-.5-.456-.289-1.2-.782-1.709-1.128-.422-.289-.89-.617-.932-.652-.02-.017-.293-.212-.364-.259a.685.685,0,0,1-.071-.052c-.006-.008-.12-.094-.172-.13s-.239-.173-.252-.186-.05-.04-.094-.071c-.064-.046-.314-.235-.371-.279l-.2-.15L26,20.032l-.05-.04c-.089-.069-.281-.222-.454-.362l-.271-.217c-.031-.024-.06-.048-.063-.052s-.035-.031-.069-.059l-.077-.064c-.016-.015-.037-.032-.124-.1l-.138-.116-.088-.074c-.027-.02-.077-.064-.12-.1-.024-.023-.061-.054-.082-.071s-.058-.048-.082-.071-.078-.07-.12-.1l-.082-.071-.095-.084c-.049-.042-.1-.086-.107-.1s-.058-.054-.107-.1-.119-.106-.158-.142l-.234-.218c-.365-.341-1.079-1.06-1.355-1.363-.2-.221-.2-.218-.3-.332l-.095-.109-.082-.1-.082-.1-.069-.084c-.034-.042-.066-.08-.07-.084s-.029-.035-.057-.071l-.063-.079c-.02-.023-.045-.055-.138-.178l-.1-.135-.1-.135-.107-.148c-.071-.1-.357-.526-.364-.545a.053.053,0,0,0-.013-.02.448.448,0,0,1-.04-.064c-.018-.032-.064-.111-.1-.175s-.071-.121-.071-.124a.893.893,0,0,0-.049-.089c-.058-.1-.261-.508-.31-.627-.019-.046-.045-.107-.057-.136-.053-.119-.189-.512-.227-.654l-.024-.09c-.015-.056-.081-.393-.1-.508a10.2,10.2,0,0,1-.14-1.756,7.9,7.9,0,0,1,.178-1.8c.048-.224.063-.289.074-.321s.023-.075.038-.129a3.741,3.741,0,0,1,.153-.453.1.1,0,0,0,.011-.035.6.6,0,0,1,.036-.093c.02-.044.044-.1.054-.125a5.1,5.1,0,0,1,.647-1.078l.057-.067a4.618,4.618,0,0,1,.541-.533l.094-.078c.017-.016.049-.038.251-.176.081-.055.15-.1.155-.1a.165.165,0,0,0,.043-.025A5.564,5.564,0,0,1,23.23,4.59l.126-.026a7.368,7.368,0,0,1,.876-.109,3.527,3.527,0,0,1,.548.012m6.7,4.667c.028.056.051.1.1.177.015.025.051.091.081.148s.058.109.063.116.052.1.1.2l.121.238c.032.063.216.457.216.463s.02.05.045.1l.055.126.031.072c.023.053.094.239.149.391.035.1.109.327.161.5.02.067.047.177.09.36.007.028.018.089.025.135l.026.161a5.178,5.178,0,0,1,.012.758,1.408,1.408,0,0,1-.541.992.491.491,0,0,0-.075.059.018.018,0,0,1-.015.01.4.4,0,0,0-.076.039,2.06,2.06,0,0,1-.383.142,1.349,1.349,0,0,1-1.308-.576,1.781,1.781,0,0,1-.248-.982,3.427,3.427,0,0,1,.071-.673,6.762,6.762,0,0,1,.206-.771c.124-.347.192-.518.312-.79l.051-.116c.08-.181.339-.7.447-.9l.086-.161c.03-.057.065-.118.077-.137a.169.169,0,0,0,.023-.042.347.347,0,0,1,.064-.1.184.184,0,0,1,.035.055" transform="translate(-17.564 -2.875)" fill="#22b393" fill-rule="evenodd"/>
  </g>
</svg>
